<svg width="969" height="301" viewBox="0 0 969 301" fill="none" xmlns="http://www.w3.org/2000/svg">
<path d="M563.082 104L565.031 101.093L563.082 104ZM576.082 3.5V0V3.5ZM968.082 141.5L954.141 103.566L928.26 134.607L968.082 141.5ZM3.08203 299L6.16423 300.658C8.53945 296.244 10.9595 291.904 13.4228 287.637L10.3917 285.887L7.36064 284.137C4.86225 288.465 2.40808 292.866 -0.000168324 297.342L3.08203 299ZM26.0651 260.566L28.9824 262.5C34.5135 254.156 40.2203 246.128 46.0871 238.408L43.3005 236.29L40.5138 234.173C34.5556 242.013 28.7617 250.163 23.1479 258.632L26.0651 260.566ZM62.0831 213.207L64.7223 215.505C71.2786 207.978 77.9974 200.786 84.8602 193.918L82.3844 191.444L79.9087 188.97C72.9333 195.95 66.1054 203.26 59.4438 210.908L62.0831 213.207ZM104.192 171.091L106.489 173.732C114.013 167.187 121.676 160.99 129.457 155.129L127.351 152.333L125.245 149.538C117.334 155.497 109.544 161.797 101.895 168.451L104.192 171.091ZM151.749 135.264L153.653 138.201C161.995 132.791 170.44 127.732 178.966 123.011L177.27 119.949L175.575 116.887C166.909 121.686 158.324 126.828 149.844 132.328L151.749 135.264ZM203.843 106.41L205.324 109.582C214.335 105.373 223.406 101.515 232.508 97.9916L231.245 94.7276L229.981 91.4636C220.735 95.043 211.519 98.9629 202.362 103.239L203.843 106.41ZM259.351 84.9079L260.396 88.2484C269.909 85.2733 279.425 82.6439 288.915 80.3425L288.09 76.9411L287.265 73.5397C277.631 75.8763 267.967 78.5462 258.307 81.5674L259.351 84.9079ZM317.229 70.8586L317.834 74.3058C327.679 72.5777 337.459 71.1901 347.137 70.1229L346.753 66.644L346.369 63.1651C336.545 64.2484 326.618 65.657 316.624 67.4113L317.229 70.8586ZM376.433 64.3304L376.592 67.8267C386.63 67.3686 396.51 67.25 406.189 67.4466L406.26 63.9473L406.331 60.448C396.499 60.2484 386.465 60.3689 376.273 60.834L376.433 64.3304ZM435.965 65.5658L435.652 69.0519C445.746 69.9556 455.542 71.2068 464.982 72.7729L465.555 69.3201L466.128 65.8673C456.511 64.2718 446.541 62.9987 436.277 62.0798L435.965 65.5658ZM494.743 75.42L493.877 78.8113C503.841 81.3546 513.242 84.2705 521.994 87.507L523.208 84.2243L524.422 80.9415C515.425 77.6145 505.79 74.6277 495.608 72.0288L494.743 75.42ZM550.372 96.3656L548.709 99.4455C553.146 101.841 557.293 104.332 561.133 106.907L563.082 104L565.031 101.093C560.991 98.3839 556.651 95.7781 552.034 93.2858L550.372 96.3656ZM563.082 104L561.133 106.907C565.709 109.975 569.875 112.956 573.652 115.849L575.78 113.071L577.909 110.293C574.003 107.3 569.716 104.234 565.031 101.093L563.082 104ZM598.187 134.355L595.419 136.497C603.588 147.057 604.874 155.294 602.379 161.72L605.642 162.987L608.905 164.253C612.637 154.64 609.923 143.806 600.956 132.214L598.187 134.355ZM582.547 182.468L581.182 179.245C573.187 182.632 563.355 185.359 552.129 187.394L552.753 190.838L553.377 194.281C564.94 192.185 575.304 189.338 583.913 185.69L582.547 182.468ZM521.963 194.496L521.732 191.003C511.921 191.652 501.605 191.903 490.994 191.758L490.946 195.258L490.899 198.757C501.679 198.905 512.181 198.65 522.193 197.988L521.963 194.496ZM459.96 193.773L460.244 190.284C450.064 189.457 439.81 188.292 429.652 186.792L429.14 190.254L428.629 193.717C438.942 195.239 449.347 196.422 459.677 197.261L459.96 193.773ZM398.632 184.655L399.39 181.238C394.34 180.118 389.362 178.911 384.479 177.617L383.582 181L382.685 184.383C387.665 185.703 392.736 186.933 397.875 188.072L398.632 184.655ZM383.582 181L384.479 177.617C379.832 176.385 375.258 174.995 370.781 173.461L369.646 176.773L368.512 180.084C373.146 181.671 377.877 183.109 382.685 184.383L383.582 181ZM342.891 165.364L344.503 162.257C335.696 157.687 327.602 152.563 320.453 147.043L318.314 149.814L316.175 152.584C323.683 158.381 332.135 163.725 341.278 168.47L342.891 165.364ZM297.62 129.457L300.399 127.33C294.261 119.309 290.214 111.021 288.6 102.794L285.166 103.468L281.731 104.142C283.598 113.659 288.209 122.919 294.84 131.584L297.62 129.457ZM289.045 75.2181L292.173 76.789C295.683 69.7999 301.465 62.836 310.012 56.1481L307.855 53.3916L305.699 50.6351C296.508 57.8265 289.98 65.5578 285.917 73.6471L289.045 75.2181ZM332.849 38.4099L334.338 41.5773C342.088 37.9342 350.919 34.4773 360.915 31.2588L359.843 27.9272L358.77 24.5956C348.531 27.8925 339.416 31.4551 331.36 35.2424L332.849 38.4099ZM387.872 20.2636L388.661 23.6735C397.427 21.6444 406.842 19.7671 416.938 18.0606L416.355 14.6096L415.771 11.1585C405.55 12.8862 395.996 14.7904 387.082 16.8538L387.872 20.2636ZM445.217 10.4362L445.642 13.9103C454.797 12.7908 464.412 11.7941 474.502 10.9301L474.203 7.4429L473.905 3.95566C463.736 4.82643 454.037 5.83168 444.792 6.96207L445.217 10.4362ZM503.204 5.40493L503.399 8.89949C512.682 8.38087 522.314 7.9637 532.305 7.65387L532.197 4.15556L532.088 0.657238C522.042 0.96877 512.352 1.38839 503.009 1.91038L503.204 5.40493ZM561.211 3.57169L561.245 7.07153C566.114 7.024 571.059 6.99997 576.082 7V3.5V0C571.037 -3.21865e-05 566.069 0.0241032 561.177 0.0718608L561.211 3.57169ZM576.082 3.5V7C580.594 7.00003 585.564 7.13785 590.948 7.41946L591.131 3.92424L591.314 0.429018C585.827 0.142028 580.733 2.95639e-05 576.082 0V3.5ZM621.183 6.53692L620.778 10.0134C630.068 11.0951 640.01 12.476 650.476 14.1691L651.035 10.714L651.594 7.25897C641.031 5.55024 630.987 4.15476 621.588 3.06041L621.183 6.53692ZM680.723 16.1009L680.034 19.5326C689.553 21.4413 699.359 23.579 709.375 25.9531L710.183 22.5475L710.99 19.1418C700.893 16.7488 691.008 14.5937 681.411 12.6692L680.723 16.1009ZM739.42 30.0083L738.497 33.3843C748.015 35.988 757.649 38.7973 767.34 41.818L768.381 38.4765L769.423 35.1351C759.651 32.0892 749.938 29.2569 740.344 26.6324L739.42 30.0083ZM797.015 47.9815L795.851 51.282C805.242 54.596 814.63 58.1111 823.964 61.8323L825.261 58.5811L826.557 55.3299C817.132 51.5724 807.655 48.0246 798.18 44.681L797.015 47.9815ZM853.034 70.359L851.595 73.5496C860.732 77.6693 869.76 81.9977 878.629 86.5398L880.224 83.4245L881.82 80.3093C872.842 75.7113 863.708 71.3328 854.473 67.1684L853.034 70.359ZM906.681 97.914L904.911 100.934C913.595 106.023 922.054 111.339 930.235 116.888L932.2 113.991L934.164 111.095C925.848 105.454 917.258 100.056 908.451 94.8944L906.681 97.914Z" fill="#B89555"/>
</svg>
